<svg width="127" height="30" viewBox="0 0 127 30" fill="none" xmlns="http://www.w3.org/2000/svg">
<g clip-path="url(#clip0_108_992)">
<path d="M43.0322 3.44675C42.9694 3.5888 42.7969 3.74651 42.4363 3.74651H41.558C41.4012 3.74651 41.2914 3.87268 41.2756 4.01473V13.6712H40.4758C40.2092 13.6712 40.162 13.5135 40.162 13.4345V3.74651H38.578V2.9734C38.578 2.78415 38.7348 2.62622 38.9231 2.62622H43.4086L43.0322 3.44675Z" fill="#263B80"/>
<path d="M48.8193 13.6712V9.63184C48.8193 9.09541 48.5369 8.92182 48.2389 8.92182H47.643V13.6712H46.5139V2.62622H48.5684C49.3213 2.62622 49.9486 3.24162 49.9486 4.01473V7.4228C49.9486 7.4228 49.9957 8.29054 49.5408 8.40104C49.9799 8.62184 49.9486 9.44237 49.9486 9.44237V13.671H48.8195L48.8193 13.6712ZM48.2389 7.84895C48.5369 7.84895 48.8193 7.72278 48.8193 7.21789V4.25163C48.8193 3.84136 48.5369 3.68365 48.2389 3.68365H47.643V7.84918H48.2389V7.84895Z" fill="#263B80"/>
<path d="M58.0096 13.6712H56.7706L55.7825 6.06606L54.7944 13.6712H53.5554L55.2179 2.62622H55.8296C56.3001 2.62622 56.3786 2.92598 56.4255 3.22574L58.0096 13.671V13.6712Z" fill="#263B80"/>
<path d="M65.5846 2.62622C65.4747 2.91032 65.2708 3.35213 65.2239 3.44675C65.1454 3.5888 64.9887 3.76239 64.628 3.76239H63.3733C63.2321 3.76239 63.1067 3.88856 63.1067 4.03061V7.47023H65.1141L64.7376 8.29076C64.6591 8.43281 64.5024 8.6064 64.1417 8.6064H63.3888C63.2321 8.6064 63.1065 8.71691 63.1065 8.87462V13.3399C63.1065 13.5292 62.9497 13.6712 62.7772 13.6712H61.9929V2.95752C61.9929 2.78393 62.1341 2.62622 62.3222 2.62622H65.5843H65.5846Z" fill="#263B80"/>
<path d="M73.4264 2.62622C73.3165 2.91032 73.1126 3.35213 73.0657 3.44675C72.9872 3.5888 72.8305 3.76239 72.4698 3.76239H71.2151C71.0739 3.76239 70.9485 3.88856 70.9485 4.03061V7.47023H72.9559L72.5794 8.29076C72.5009 8.43281 72.3442 8.6064 71.9835 8.6064H71.2306C71.0739 8.6064 70.9483 8.71691 70.9483 8.87462V13.3399C70.9483 13.5292 70.7915 13.6712 70.619 13.6712H69.8347V2.95752C69.8347 2.78393 69.9759 2.62622 70.164 2.62622H73.4261H73.4264Z" fill="#263B80"/>
<path d="M78.3194 2.62622C78.6487 2.62622 78.7741 2.87878 78.7741 3.06803V13.6712H77.9743C77.7077 13.6712 77.6606 13.5135 77.645 13.4345V2.62622H78.3194Z" fill="#263B80"/>
<path d="M87.0236 12.3774C87.0236 13.1348 86.4277 13.75 85.6748 13.7817H84.9846C84.2004 13.7817 83.5731 13.1507 83.5731 12.3774V3.92014C83.5731 3.14703 84.2004 2.51575 84.9846 2.51575H85.6748C86.4277 2.53163 87.0236 3.16269 87.0236 3.92014V5.6084C87.0236 5.97125 86.8668 6.14484 86.7256 6.20792L85.91 6.58665V4.10939C85.91 3.77809 85.6434 3.50987 85.2983 3.50987C84.9533 3.50987 84.7024 3.77809 84.7024 4.10939V12.1722C84.7024 12.5194 84.969 12.7876 85.2983 12.7876C85.6276 12.7876 85.91 12.5194 85.91 12.1722V10.6891C85.91 10.3262 86.0668 10.1527 86.208 10.0737C86.302 10.0263 86.7412 9.83701 87.0236 9.71084V12.3774Z" fill="#263B80"/>
<path d="M103.224 2.62622C103.115 2.91032 102.911 3.35213 102.864 3.44675C102.785 3.5888 102.628 3.76239 102.268 3.76239H101.013C100.872 3.76239 100.746 3.88856 100.746 4.03061V7.47023H102.754L102.377 8.29076C102.299 8.43281 102.142 8.6064 101.782 8.6064H101.029C100.872 8.6064 100.746 8.71691 100.746 8.87462V13.3399C100.746 13.5292 100.589 13.6712 100.417 13.6712H99.6327V2.95752C99.6327 2.78393 99.7739 2.62622 99.962 2.62622H103.224H103.224Z" fill="#263B80"/>
<path d="M111.066 12.5509C110.94 12.835 110.752 13.2768 110.705 13.3714C110.627 13.5135 110.454 13.6712 110.093 13.6712H107.396V2.62622H108.18C108.368 2.6421 108.525 2.78393 108.525 2.9734V12.5509H111.066H111.066Z" fill="#263B80"/>
<path d="M116.304 2.51575C117.057 2.54729 117.668 3.16269 117.668 3.92014V12.3932C117.653 13.1507 117.057 13.7502 116.304 13.7817H115.441C114.673 13.7817 114.045 13.1507 114.03 12.3932V3.92014C114.03 3.14703 114.657 2.51575 115.441 2.51575H116.304ZM115.927 12.7876C116.257 12.7876 116.523 12.5194 116.523 12.1722V4.12527C116.523 3.77809 116.257 3.50987 115.927 3.50987H115.755C115.426 3.52575 115.159 3.79397 115.159 4.12527V12.1722C115.159 12.5035 115.426 12.7717 115.755 12.7876H115.927Z" fill="#263B80"/>
<path d="M125.667 13.6712H124.616L123.847 8.06972L123.095 13.6712H122.06L120.695 2.6262H121.557C121.824 2.6262 121.887 2.78391 121.903 2.86288L122.655 8.90591L123.204 5.08757C123.267 4.44063 123.455 4.20396 124.177 4.20396H124.318L125.055 8.90591L125.777 2.84699C125.792 2.76803 125.871 2.62598 126.106 2.62598H127L125.667 13.671V13.6712Z" fill="#263B80"/>
<path d="M41.5894 18.8445C42.3578 18.8445 42.9695 19.4599 42.9851 20.233V28.501C42.9693 29.2741 42.3578 29.8895 41.5894 29.8895H39.4094V18.8445H41.5894ZM41.8717 20.5486C41.8717 20.1384 41.5894 19.9807 41.2758 19.9807H40.5387V28.7692H41.2758C41.5896 28.7692 41.8717 28.6115 41.8717 28.1853V20.5486Z" fill="#263B80"/>
<path d="M50.9521 29.8895H49.7131L48.725 22.2843L47.7369 29.8895H46.4979L48.1604 18.8445H48.7721C49.2426 18.8445 49.3211 19.1442 49.368 19.444L50.9521 29.8892V29.8895Z" fill="#263B80"/>
<path d="M58.0883 19.665C58.0256 19.8071 57.8531 19.9648 57.4924 19.9648H56.6141C56.4574 19.9648 56.3475 20.0909 56.3317 20.233V29.8895H55.5319C55.2653 29.8895 55.2182 29.7318 55.2182 29.6528V19.9648H53.6342V19.1917C53.6342 19.0024 53.7909 18.8445 53.9792 18.8445H58.4647L58.0883 19.665Z" fill="#263B80"/>
<path d="M65.2239 29.8895H63.985L62.9968 22.2843L62.0087 29.8895H60.7698L62.4323 18.8445H63.044C63.5145 18.8445 63.593 19.1442 63.6399 19.444L65.2239 29.8892V29.8895Z" fill="#263B80"/>
<path d="M78.9625 21.6215V20.3435C78.9625 19.9963 78.6959 19.7281 78.3666 19.7281C78.0373 19.7281 77.7707 19.9963 77.7707 20.3435V21.4007C77.7707 22.0477 78.2569 22.8839 78.2569 22.8839L79.6057 25.4399C80.1547 26.4496 80.1076 27.1912 80.1076 27.1912V28.5954C80.1076 29.3685 79.4803 29.9998 78.6961 29.9998H77.9903C77.2375 29.9682 76.6416 29.3528 76.626 28.5954V27.4594C76.626 27.0966 76.7985 26.923 76.9397 26.844C77.0338 26.8125 77.4887 26.6073 77.7709 26.4812V28.4061C77.7709 28.7374 78.0375 29.0056 78.3668 29.0056C78.6961 29.0056 78.9627 28.7374 78.9627 28.3902V27.1279C78.9627 26.481 78.4764 25.6289 78.4764 25.6289L77.1276 23.0885C76.5786 22.0788 76.6258 21.3372 76.6258 21.3372V20.2012C76.6258 19.4281 77.253 18.7338 78.0373 18.7338H78.743C79.4959 18.7496 80.1074 19.4438 80.1074 20.2012V20.6272C80.1074 20.99 79.9348 21.1636 79.7936 21.2426C79.6996 21.29 79.2604 21.4951 78.9625 21.6213V21.6215Z" fill="#263B80"/>
<path d="M86.7411 18.8445C87.494 18.8445 88.1684 19.4599 88.1684 20.233V23.089C88.1684 24.1618 87.6508 24.9352 86.5688 24.9352H85.8944V29.8897H85.0946C84.828 29.8897 84.7809 29.732 84.7809 29.653V18.8447H86.7414L86.7411 18.8445ZM87.0862 20.4381C87.0549 20.1384 86.8038 19.9017 86.4903 19.9017H85.8944V23.878H86.4903C86.8041 23.878 87.0549 23.6413 87.0862 23.3415V20.4383V20.4381Z" fill="#263B80"/>
<path d="M95.9629 29.8895H94.724L93.7359 22.2843L92.7477 29.8895H91.5088L93.1713 18.8445H93.783C94.2535 18.8445 94.332 19.1442 94.3789 19.444L95.9629 29.8892V29.8895Z" fill="#263B80"/>
<path d="M103.02 28.5956C103.02 29.3531 102.424 29.9682 101.672 30H100.981C100.197 30 99.5699 29.3689 99.5699 28.5956V20.1384C99.5699 19.3653 100.197 18.734 100.981 18.734H101.672C102.424 18.7499 103.02 19.3809 103.02 20.1384V21.8267C103.02 22.1895 102.864 22.3631 102.722 22.4262L101.907 22.8049V20.3276C101.907 19.9963 101.64 19.7281 101.295 19.7281C100.95 19.7281 100.699 19.9963 100.699 20.3276V28.3905C100.699 28.7377 100.966 29.0059 101.295 29.0059C101.624 29.0059 101.907 28.7377 101.907 28.3905V26.9073C101.907 26.5445 102.064 26.3709 102.205 26.2919C102.299 26.2445 102.738 26.0553 103.02 25.9291V28.5956Z" fill="#263B80"/>
<path d="M111.317 28.7692C111.191 29.0533 111.003 29.4951 110.956 29.5897C110.878 29.7318 110.705 29.8895 110.344 29.8895H107.835V19.1601C107.851 18.9865 107.992 18.8445 108.18 18.8445H111.113L110.737 19.665C110.674 19.8071 110.501 19.9807 110.141 19.9807H109.231C109.074 19.9807 108.965 20.0912 108.965 20.2489V23.5308H110.658C110.533 23.8149 110.345 24.2723 110.298 24.367C110.219 24.509 110.063 24.6667 109.702 24.6667H109.231C109.09 24.6667 108.965 24.7929 108.965 24.9349V28.7692H111.317H111.317Z" fill="#263B80"/>
<path d="M19.3177 2.3186C20.5044 2.50942 21.9108 3.93282 21.9108 5.16631V10.9704L22.6968 10.9682C22.4893 11.421 20.8393 14.8724 20.7943 14.9626C20.7401 15.072 19.0155 11.4033 18.7536 10.951L19.7497 10.9707V5.34035C19.7497 4.94731 19.134 4.42049 18.7358 4.44734H3.17474C2.59929 4.51154 2.22285 4.88981 2.15926 5.46898V21.1242C2.13258 21.5248 2.65621 22.144 3.04689 22.144H3.72284V24.318H2.8739C1.57092 24.318 0.15787 22.7988 0 21.5354V5.05759C0.290836 3.69145 1.22983 2.65751 2.59307 2.3186H19.3177Z" fill="#F37438"/>
<path d="M18.4176 7.33459L17.375 9.50851H8.79441C8.41597 9.50851 7.90301 10.1013 7.90856 10.4868L7.90679 26.1838C7.97171 26.7741 8.37217 27.1697 8.9654 27.2057H24.4838C25.0597 27.1412 25.4357 26.7625 25.4993 26.1838V10.5284C25.5259 10.1277 25.0023 9.50851 24.6116 9.50851H23.9343V7.33459H24.7844C26.1278 7.33459 27.6387 8.96515 27.6572 10.3141L27.6599 26.3572C27.5269 27.9604 26.2788 29.2172 24.697 29.3762L8.79264 29.3796C7.13567 29.2496 5.87516 27.9815 5.74597 26.3144L5.7542 10.2754C5.78555 8.94143 7.29398 7.33459 8.62209 7.33459H18.4182H18.4176Z" fill="#273C80"/>
<path d="M10.1488 22.1876H18.4063L17.4493 24.3613H10.1488V22.1876Z" fill="#273C80"/>
<path d="M18.3585 14.9705L17.3652 17.135L10.171 17.1444V14.9705H18.3585Z" fill="#273C80"/>
</g>
<defs>
<clipPath id="clip0_108_992">
<rect width="127" height="30" fill="white"/>
</clipPath>
</defs>
</svg>
